<mxfile host="app.diagrams.net" modified="2022-12-08T04:56:03.243Z" agent="5.0 (Windows NT 10.0; Win64; x64) AppleWebKit/537.36 (KHTML, like Gecko) Chrome/108.0.0.0 Safari/537.36" etag="IpgrUromlR1_4_5rqnWR" version="20.6.0" type="github">
  <diagram id="ANpovaHU1eIrkZYr938F" name="ページ1">
    <mxGraphModel dx="1422" dy="697" grid="1" gridSize="10" guides="1" tooltips="1" connect="1" arrows="1" fold="1" page="1" pageScale="1" pageWidth="827" pageHeight="1169" math="0" shadow="0">
      <root>
        <mxCell id="0" />
        <mxCell id="1" parent="0" />
        <mxCell id="2dYhu7VMKbmzX5I1UJ0d-1" value="&lt;font style=&quot;font-size: 20px;&quot; face=&quot;Lucida Console&quot;&gt;rbp(r5)&lt;/font&gt;" style="rounded=0;whiteSpace=wrap;html=1;" parent="1" vertex="1">
          <mxGeometry x="80" y="150" width="680" height="40" as="geometry" />
        </mxCell>
        <mxCell id="2dYhu7VMKbmzX5I1UJ0d-2" value="" style="rounded=0;whiteSpace=wrap;html=1;" parent="1" vertex="1">
          <mxGeometry x="80" y="190" width="340" height="40" as="geometry" />
        </mxCell>
        <mxCell id="2dYhu7VMKbmzX5I1UJ0d-3" value="&lt;font face=&quot;Lucida Console&quot;&gt;&lt;span style=&quot;font-size: 20px;&quot;&gt;ebp&lt;/span&gt;&lt;/font&gt;" style="rounded=0;whiteSpace=wrap;html=1;" parent="1" vertex="1">
          <mxGeometry x="420" y="190" width="340" height="40" as="geometry" />
        </mxCell>
        <mxCell id="2dYhu7VMKbmzX5I1UJ0d-4" value="&lt;font face=&quot;Lucida Console&quot;&gt;&lt;span style=&quot;font-size: 20px;&quot;&gt;bp&lt;/span&gt;&lt;/font&gt;" style="rounded=0;whiteSpace=wrap;html=1;" parent="1" vertex="1">
          <mxGeometry x="590" y="230" width="170" height="40" as="geometry" />
        </mxCell>
        <mxCell id="2dYhu7VMKbmzX5I1UJ0d-8" value="&lt;font style=&quot;font-size: 20px;&quot; face=&quot;Lucida Console&quot;&gt;bpl&lt;/font&gt;" style="rounded=0;whiteSpace=wrap;html=1;" parent="1" vertex="1">
          <mxGeometry x="675" y="270" width="85" height="40" as="geometry" />
        </mxCell>
        <mxCell id="2dYhu7VMKbmzX5I1UJ0d-9" value="" style="rounded=0;whiteSpace=wrap;html=1;" parent="1" vertex="1">
          <mxGeometry x="80" y="230" width="510" height="40" as="geometry" />
        </mxCell>
        <mxCell id="2dYhu7VMKbmzX5I1UJ0d-12" value="" style="rounded=0;whiteSpace=wrap;html=1;" parent="1" vertex="1">
          <mxGeometry x="80" y="270" width="595" height="40" as="geometry" />
        </mxCell>
        <mxCell id="2dYhu7VMKbmzX5I1UJ0d-13" value="&lt;font style=&quot;font-size: 16px;&quot;&gt;0&lt;/font&gt;" style="text;html=1;resizable=0;autosize=1;align=center;verticalAlign=middle;points=[];fillColor=none;strokeColor=none;rounded=0;fontFamily=Lucida Console;fontSize=20;" parent="1" vertex="1">
          <mxGeometry x="745" y="110" width="30" height="40" as="geometry" />
        </mxCell>
        <mxCell id="2dYhu7VMKbmzX5I1UJ0d-14" value="&lt;font style=&quot;font-size: 16px;&quot;&gt;7&lt;/font&gt;" style="text;html=1;resizable=0;autosize=1;align=center;verticalAlign=middle;points=[];fillColor=none;strokeColor=none;rounded=0;fontFamily=Lucida Console;fontSize=20;" parent="1" vertex="1">
          <mxGeometry x="660" y="110" width="30" height="40" as="geometry" />
        </mxCell>
        <mxCell id="2dYhu7VMKbmzX5I1UJ0d-15" value="&lt;font style=&quot;font-size: 16px;&quot;&gt;15&lt;/font&gt;" style="text;html=1;resizable=0;autosize=1;align=center;verticalAlign=middle;points=[];fillColor=none;strokeColor=none;rounded=0;fontFamily=Lucida Console;fontSize=20;" parent="1" vertex="1">
          <mxGeometry x="565" y="110" width="40" height="40" as="geometry" />
        </mxCell>
        <mxCell id="2dYhu7VMKbmzX5I1UJ0d-16" value="&lt;font style=&quot;font-size: 16px;&quot;&gt;31&lt;/font&gt;" style="text;html=1;resizable=0;autosize=1;align=center;verticalAlign=middle;points=[];fillColor=none;strokeColor=none;rounded=0;fontFamily=Lucida Console;fontSize=20;" parent="1" vertex="1">
          <mxGeometry x="400" y="110" width="40" height="40" as="geometry" />
        </mxCell>
        <mxCell id="2dYhu7VMKbmzX5I1UJ0d-17" value="&lt;font style=&quot;font-size: 16px;&quot;&gt;63&lt;/font&gt;" style="text;html=1;resizable=0;autosize=1;align=center;verticalAlign=middle;points=[];fillColor=none;strokeColor=none;rounded=0;fontFamily=Lucida Console;fontSize=20;" parent="1" vertex="1">
          <mxGeometry x="60" y="110" width="40" height="40" as="geometry" />
        </mxCell>
      </root>
    </mxGraphModel>
  </diagram>
</mxfile>
